<svg viewBox="0 0 400 300" xmlns="http://www.w3.org/2000/svg" role="img" aria-label="Silla de comedor en roble">
<rect width="400" height="300" fill="#a9793f"/><path d="M0 18 C 100 9, 200 27, 400 18" stroke="#7f5628" stroke-width="1.2" fill="none" opacity="0.55"/><path d="M0 30 C 100 21, 200 39, 400 30" stroke="#7f5628" stroke-width="1.3" fill="none" opacity="0.55"/><path d="M0 43 C 100 37, 200 50, 400 43" stroke="#7f5628" stroke-width="1.5" fill="none" opacity="0.55"/><path d="M0 64 C 100 60, 200 69, 400 64" stroke="#7f5628" stroke-width="2.3" fill="none" opacity="0.55"/><path d="M0 80 C 100 73, 200 86, 400 80" stroke="#7f5628" stroke-width="2.3" fill="none" opacity="0.55"/><path d="M0 98 C 100 90, 200 107, 400 98" stroke="#7f5628" stroke-width="2.0" fill="none" opacity="0.55"/><path d="M0 111 C 100 103, 200 119, 400 111" stroke="#7f5628" stroke-width="1.8" fill="none" opacity="0.55"/><path d="M0 126 C 100 122, 200 130, 400 126" stroke="#7f5628" stroke-width="2.2" fill="none" opacity="0.55"/><path d="M0 144 C 100 135, 200 152, 400 144" stroke="#7f5628" stroke-width="2.1" fill="none" opacity="0.55"/><path d="M0 165 C 100 159, 200 172, 400 165" stroke="#7f5628" stroke-width="2.0" fill="none" opacity="0.55"/><path d="M0 184 C 100 179, 200 188, 400 184" stroke="#7f5628" stroke-width="2.3" fill="none" opacity="0.55"/><path d="M0 199 C 100 191, 200 206, 400 199" stroke="#7f5628" stroke-width="2.3" fill="none" opacity="0.55"/><path d="M0 217 C 100 213, 200 221, 400 217" stroke="#7f5628" stroke-width="2.2" fill="none" opacity="0.55"/><path d="M0 236 C 100 232, 200 240, 400 236" stroke="#7f5628" stroke-width="1.1" fill="none" opacity="0.55"/><path d="M0 253 C 100 250, 200 256, 400 253" stroke="#7f5628" stroke-width="2.3" fill="none" opacity="0.55"/><path d="M0 270 C 100 264, 200 276, 400 270" stroke="#7f5628" stroke-width="1.6" fill="none" opacity="0.55"/><path d="M0 289 C 100 280, 200 297, 400 289" stroke="#7f5628" stroke-width="1.4" fill="none" opacity="0.55"/><ellipse cx="223" cy="114" rx="7" ry="12" fill="none" stroke="#7f5628" stroke-width="2" opacity="0.5"/><ellipse cx="223" cy="114" rx="3" ry="5" fill="#7f5628" opacity="0.4"/><ellipse cx="227" cy="158" rx="7" ry="12" fill="none" stroke="#7f5628" stroke-width="2" opacity="0.5"/><ellipse cx="227" cy="158" rx="3" ry="5" fill="#7f5628" opacity="0.4"/>
<g transform="translate(200 150)" stroke="#FBF7F0" stroke-width="6" fill="none" stroke-linecap="round" stroke-linejoin="round" opacity="0.92">
<path d="M-22 -46 v72"/><path d="M-22 -44 h30 M-22 -28 h30 M-22 -12 h30"/><path d="M-22 4 h42"/><path d="M20 4 v22"/>
</g>
</svg>