<svg viewBox="0 0 400 300" xmlns="http://www.w3.org/2000/svg" role="img" aria-label="Tablones de madera (materia prima)">
<rect width="400" height="300" fill="#c79a5e"/><path d="M0 18 C 100 13, 200 23, 400 18" stroke="#9c7038" stroke-width="2.1" fill="none" opacity="0.55"/><path d="M0 33 C 100 28, 200 38, 400 33" stroke="#9c7038" stroke-width="2.0" fill="none" opacity="0.55"/><path d="M0 49 C 100 41, 200 56, 400 49" stroke="#9c7038" stroke-width="2.3" fill="none" opacity="0.55"/><path d="M0 64 C 100 56, 200 72, 400 64" stroke="#9c7038" stroke-width="2.0" fill="none" opacity="0.55"/><path d="M0 83 C 100 74, 200 91, 400 83" stroke="#9c7038" stroke-width="1.9" fill="none" opacity="0.55"/><path d="M0 97 C 100 89, 200 106, 400 97" stroke="#9c7038" stroke-width="2.3" fill="none" opacity="0.55"/><path d="M0 111 C 100 108, 200 115, 400 111" stroke="#9c7038" stroke-width="1.6" fill="none" opacity="0.55"/><path d="M0 126 C 100 119, 200 133, 400 126" stroke="#9c7038" stroke-width="1.4" fill="none" opacity="0.55"/><path d="M0 141 C 100 135, 200 147, 400 141" stroke="#9c7038" stroke-width="1.5" fill="none" opacity="0.55"/><path d="M0 158 C 100 150, 200 165, 400 158" stroke="#9c7038" stroke-width="1.7" fill="none" opacity="0.55"/><path d="M0 178 C 100 175, 200 182, 400 178" stroke="#9c7038" stroke-width="1.3" fill="none" opacity="0.55"/><path d="M0 198 C 100 192, 200 205, 400 198" stroke="#9c7038" stroke-width="2.4" fill="none" opacity="0.55"/><path d="M0 218 C 100 215, 200 221, 400 218" stroke="#9c7038" stroke-width="1.1" fill="none" opacity="0.55"/><path d="M0 235 C 100 227, 200 243, 400 235" stroke="#9c7038" stroke-width="1.2" fill="none" opacity="0.55"/><path d="M0 254 C 100 248, 200 259, 400 254" stroke="#9c7038" stroke-width="1.3" fill="none" opacity="0.55"/><path d="M0 275 C 100 271, 200 280, 400 275" stroke="#9c7038" stroke-width="1.5" fill="none" opacity="0.55"/><path d="M0 289 C 100 284, 200 293, 400 289" stroke="#9c7038" stroke-width="2.4" fill="none" opacity="0.55"/><ellipse cx="329" cy="160" rx="7" ry="12" fill="none" stroke="#9c7038" stroke-width="2" opacity="0.5"/><ellipse cx="329" cy="160" rx="3" ry="5" fill="#9c7038" opacity="0.4"/><ellipse cx="218" cy="222" rx="7" ry="12" fill="none" stroke="#9c7038" stroke-width="2" opacity="0.5"/><ellipse cx="218" cy="222" rx="3" ry="5" fill="#9c7038" opacity="0.4"/>
<g transform="translate(200 150)" stroke="#FBF7F0" stroke-width="6" fill="none" stroke-linecap="round" stroke-linejoin="round" opacity="0.92">
<rect x="-58" y="-30" width="116" height="18" rx="3"/><rect x="-58" y="-6" width="116" height="18" rx="3"/><rect x="-58" y="18" width="116" height="18" rx="3"/>
</g>
</svg>