<svg viewBox="0 0 400 300" xmlns="http://www.w3.org/2000/svg" role="img" aria-label="Mesa de comedor en madera de nogal">
<rect width="400" height="300" fill="#6d4a32"/><path d="M0 18 C 100 12, 200 24, 400 18" stroke="#4e3323" stroke-width="1.8" fill="none" opacity="0.55"/><path d="M0 39 C 100 33, 200 45, 400 39" stroke="#4e3323" stroke-width="1.7" fill="none" opacity="0.55"/><path d="M0 57 C 100 53, 200 61, 400 57" stroke="#4e3323" stroke-width="1.7" fill="none" opacity="0.55"/><path d="M0 75 C 100 68, 200 83, 400 75" stroke="#4e3323" stroke-width="1.1" fill="none" opacity="0.55"/><path d="M0 90 C 100 87, 200 94, 400 90" stroke="#4e3323" stroke-width="2.1" fill="none" opacity="0.55"/><path d="M0 109 C 100 106, 200 113, 400 109" stroke="#4e3323" stroke-width="2.4" fill="none" opacity="0.55"/><path d="M0 131 C 100 124, 200 138, 400 131" stroke="#4e3323" stroke-width="1.9" fill="none" opacity="0.55"/><path d="M0 145 C 100 142, 200 148, 400 145" stroke="#4e3323" stroke-width="1.7" fill="none" opacity="0.55"/><path d="M0 157 C 100 153, 200 161, 400 157" stroke="#4e3323" stroke-width="1.3" fill="none" opacity="0.55"/><path d="M0 170 C 100 164, 200 175, 400 170" stroke="#4e3323" stroke-width="1.6" fill="none" opacity="0.55"/><path d="M0 190 C 100 184, 200 196, 400 190" stroke="#4e3323" stroke-width="1.9" fill="none" opacity="0.55"/><path d="M0 207 C 100 200, 200 214, 400 207" stroke="#4e3323" stroke-width="1.6" fill="none" opacity="0.55"/><path d="M0 222 C 100 213, 200 231, 400 222" stroke="#4e3323" stroke-width="2.4" fill="none" opacity="0.55"/><path d="M0 242 C 100 235, 200 249, 400 242" stroke="#4e3323" stroke-width="1.4" fill="none" opacity="0.55"/><path d="M0 256 C 100 252, 200 261, 400 256" stroke="#4e3323" stroke-width="1.1" fill="none" opacity="0.55"/><path d="M0 276 C 100 271, 200 281, 400 276" stroke="#4e3323" stroke-width="2.2" fill="none" opacity="0.55"/><path d="M0 292 C 100 283, 200 301, 400 292" stroke="#4e3323" stroke-width="2.2" fill="none" opacity="0.55"/><ellipse cx="119" cy="224" rx="7" ry="12" fill="none" stroke="#4e3323" stroke-width="2" opacity="0.5"/><ellipse cx="119" cy="224" rx="3" ry="5" fill="#4e3323" opacity="0.4"/><ellipse cx="192" cy="236" rx="7" ry="12" fill="none" stroke="#4e3323" stroke-width="2" opacity="0.5"/><ellipse cx="192" cy="236" rx="3" ry="5" fill="#4e3323" opacity="0.4"/>
<g transform="translate(200 150)" stroke="#FBF7F0" stroke-width="6" fill="none" stroke-linecap="round" stroke-linejoin="round" opacity="0.92">
<rect x="-58" y="-24" width="116" height="12" rx="3" fill="#FBF7F0" fill-opacity="0.18"/><path d="M-58 -12 h116 M-46 -12 v40 M-18 -12 v40 M18 -12 v40 M46 -12 v40"/>
</g>
</svg>