<svg viewBox="0 0 400 300" xmlns="http://www.w3.org/2000/svg" role="img" aria-label="Comoda de cedro con cajones">
<rect width="400" height="300" fill="#8a5a3b"/><path d="M0 18 C 100 13, 200 23, 400 18" stroke="#623c26" stroke-width="1.4" fill="none" opacity="0.55"/><path d="M0 33 C 100 26, 200 39, 400 33" stroke="#623c26" stroke-width="1.9" fill="none" opacity="0.55"/><path d="M0 45 C 100 41, 200 50, 400 45" stroke="#623c26" stroke-width="1.3" fill="none" opacity="0.55"/><path d="M0 63 C 100 58, 200 67, 400 63" stroke="#623c26" stroke-width="1.1" fill="none" opacity="0.55"/><path d="M0 77 C 100 71, 200 82, 400 77" stroke="#623c26" stroke-width="1.8" fill="none" opacity="0.55"/><path d="M0 95 C 100 88, 200 102, 400 95" stroke="#623c26" stroke-width="1.6" fill="none" opacity="0.55"/><path d="M0 115 C 100 107, 200 123, 400 115" stroke="#623c26" stroke-width="1.4" fill="none" opacity="0.55"/><path d="M0 128 C 100 119, 200 137, 400 128" stroke="#623c26" stroke-width="1.4" fill="none" opacity="0.55"/><path d="M0 145 C 100 137, 200 152, 400 145" stroke="#623c26" stroke-width="1.8" fill="none" opacity="0.55"/><path d="M0 157 C 100 151, 200 162, 400 157" stroke="#623c26" stroke-width="1.0" fill="none" opacity="0.55"/><path d="M0 172 C 100 167, 200 178, 400 172" stroke="#623c26" stroke-width="2.0" fill="none" opacity="0.55"/><path d="M0 185 C 100 178, 200 191, 400 185" stroke="#623c26" stroke-width="1.0" fill="none" opacity="0.55"/><path d="M0 206 C 100 202, 200 209, 400 206" stroke="#623c26" stroke-width="1.4" fill="none" opacity="0.55"/><path d="M0 227 C 100 218, 200 236, 400 227" stroke="#623c26" stroke-width="1.0" fill="none" opacity="0.55"/><path d="M0 244 C 100 236, 200 251, 400 244" stroke="#623c26" stroke-width="1.9" fill="none" opacity="0.55"/><path d="M0 263 C 100 259, 200 266, 400 263" stroke="#623c26" stroke-width="1.7" fill="none" opacity="0.55"/><path d="M0 280 C 100 274, 200 286, 400 280" stroke="#623c26" stroke-width="1.8" fill="none" opacity="0.55"/><path d="M0 297 C 100 294, 200 300, 400 297" stroke="#623c26" stroke-width="1.0" fill="none" opacity="0.55"/><ellipse cx="121" cy="144" rx="7" ry="12" fill="none" stroke="#623c26" stroke-width="2" opacity="0.5"/><ellipse cx="121" cy="144" rx="3" ry="5" fill="#623c26" opacity="0.4"/><ellipse cx="74" cy="106" rx="7" ry="12" fill="none" stroke="#623c26" stroke-width="2" opacity="0.5"/><ellipse cx="74" cy="106" rx="3" ry="5" fill="#623c26" opacity="0.4"/>
<g transform="translate(200 150)" stroke="#FBF7F0" stroke-width="6" fill="none" stroke-linecap="round" stroke-linejoin="round" opacity="0.92">
<rect x="-45" y="-40" width="90" height="80" rx="4"/><path d="M-45 -13 h90 M-45 14 h90 M-8 -27 h16 M-8 0 h16 M-8 27 h16"/>
</g>
</svg>