<svg viewBox="0 0 400 300" xmlns="http://www.w3.org/2000/svg" role="img" aria-label="Escritorio de roble">
<rect width="400" height="300" fill="#8a5a2f"/><path d="M0 18 C 100 10, 200 26, 400 18" stroke="#603c1e" stroke-width="2.1" fill="none" opacity="0.55"/><path d="M0 34 C 100 31, 200 38, 400 34" stroke="#603c1e" stroke-width="1.4" fill="none" opacity="0.55"/><path d="M0 56 C 100 52, 200 60, 400 56" stroke="#603c1e" stroke-width="1.3" fill="none" opacity="0.55"/><path d="M0 74 C 100 66, 200 81, 400 74" stroke="#603c1e" stroke-width="1.3" fill="none" opacity="0.55"/><path d="M0 88 C 100 84, 200 92, 400 88" stroke="#603c1e" stroke-width="2.2" fill="none" opacity="0.55"/><path d="M0 103 C 100 95, 200 112, 400 103" stroke="#603c1e" stroke-width="1.7" fill="none" opacity="0.55"/><path d="M0 122 C 100 114, 200 130, 400 122" stroke="#603c1e" stroke-width="2.3" fill="none" opacity="0.55"/><path d="M0 138 C 100 131, 200 146, 400 138" stroke="#603c1e" stroke-width="1.4" fill="none" opacity="0.55"/><path d="M0 158 C 100 150, 200 166, 400 158" stroke="#603c1e" stroke-width="2.1" fill="none" opacity="0.55"/><path d="M0 178 C 100 170, 200 186, 400 178" stroke="#603c1e" stroke-width="2.3" fill="none" opacity="0.55"/><path d="M0 198 C 100 191, 200 204, 400 198" stroke="#603c1e" stroke-width="1.2" fill="none" opacity="0.55"/><path d="M0 212 C 100 205, 200 220, 400 212" stroke="#603c1e" stroke-width="2.3" fill="none" opacity="0.55"/><path d="M0 224 C 100 220, 200 229, 400 224" stroke="#603c1e" stroke-width="2.0" fill="none" opacity="0.55"/><path d="M0 241 C 100 235, 200 247, 400 241" stroke="#603c1e" stroke-width="2.2" fill="none" opacity="0.55"/><path d="M0 258 C 100 253, 200 263, 400 258" stroke="#603c1e" stroke-width="1.9" fill="none" opacity="0.55"/><path d="M0 270 C 100 266, 200 275, 400 270" stroke="#603c1e" stroke-width="2.3" fill="none" opacity="0.55"/><path d="M0 289 C 100 281, 200 297, 400 289" stroke="#603c1e" stroke-width="1.2" fill="none" opacity="0.55"/><ellipse cx="110" cy="84" rx="7" ry="12" fill="none" stroke="#603c1e" stroke-width="2" opacity="0.5"/><ellipse cx="110" cy="84" rx="3" ry="5" fill="#603c1e" opacity="0.4"/><ellipse cx="337" cy="70" rx="7" ry="12" fill="none" stroke="#603c1e" stroke-width="2" opacity="0.5"/><ellipse cx="337" cy="70" rx="3" ry="5" fill="#603c1e" opacity="0.4"/>
<g transform="translate(200 150)" stroke="#FBF7F0" stroke-width="6" fill="none" stroke-linecap="round" stroke-linejoin="round" opacity="0.92">
<path d="M-55 -10 h110 M-46 -10 v14 M-46 4 h34 v40 h-34 z M46 -10 v54 M-30 22 h12"/>
</g>
</svg>