<svg viewBox="0 0 400 300" xmlns="http://www.w3.org/2000/svg" role="img" aria-label="Estanteria de nogal">
<rect width="400" height="300" fill="#7a5236"/><path d="M0 18 C 100 10, 200 26, 400 18" stroke="#553722" stroke-width="2.0" fill="none" opacity="0.55"/><path d="M0 34 C 100 27, 200 40, 400 34" stroke="#553722" stroke-width="1.9" fill="none" opacity="0.55"/><path d="M0 48 C 100 39, 200 57, 400 48" stroke="#553722" stroke-width="2.4" fill="none" opacity="0.55"/><path d="M0 62 C 100 57, 200 68, 400 62" stroke="#553722" stroke-width="1.2" fill="none" opacity="0.55"/><path d="M0 81 C 100 73, 200 89, 400 81" stroke="#553722" stroke-width="1.2" fill="none" opacity="0.55"/><path d="M0 93 C 100 87, 200 100, 400 93" stroke="#553722" stroke-width="2.1" fill="none" opacity="0.55"/><path d="M0 106 C 100 101, 200 111, 400 106" stroke="#553722" stroke-width="1.4" fill="none" opacity="0.55"/><path d="M0 122 C 100 113, 200 130, 400 122" stroke="#553722" stroke-width="2.2" fill="none" opacity="0.55"/><path d="M0 142 C 100 135, 200 148, 400 142" stroke="#553722" stroke-width="2.3" fill="none" opacity="0.55"/><path d="M0 158 C 100 154, 200 162, 400 158" stroke="#553722" stroke-width="1.8" fill="none" opacity="0.55"/><path d="M0 180 C 100 174, 200 186, 400 180" stroke="#553722" stroke-width="2.4" fill="none" opacity="0.55"/><path d="M0 201 C 100 196, 200 207, 400 201" stroke="#553722" stroke-width="1.5" fill="none" opacity="0.55"/><path d="M0 220 C 100 214, 200 225, 400 220" stroke="#553722" stroke-width="1.8" fill="none" opacity="0.55"/><path d="M0 239 C 100 231, 200 247, 400 239" stroke="#553722" stroke-width="1.4" fill="none" opacity="0.55"/><path d="M0 252 C 100 245, 200 260, 400 252" stroke="#553722" stroke-width="1.6" fill="none" opacity="0.55"/><path d="M0 273 C 100 269, 200 276, 400 273" stroke="#553722" stroke-width="1.8" fill="none" opacity="0.55"/><path d="M0 291 C 100 287, 200 295, 400 291" stroke="#553722" stroke-width="1.5" fill="none" opacity="0.55"/><ellipse cx="88" cy="113" rx="7" ry="12" fill="none" stroke="#553722" stroke-width="2" opacity="0.5"/><ellipse cx="88" cy="113" rx="3" ry="5" fill="#553722" opacity="0.4"/><ellipse cx="255" cy="122" rx="7" ry="12" fill="none" stroke="#553722" stroke-width="2" opacity="0.5"/><ellipse cx="255" cy="122" rx="3" ry="5" fill="#553722" opacity="0.4"/>
<g transform="translate(200 150)" stroke="#FBF7F0" stroke-width="6" fill="none" stroke-linecap="round" stroke-linejoin="round" opacity="0.92">
<rect x="-42" y="-48" width="84" height="96" rx="3"/><path d="M-42 -16 h84 M-42 16 h84"/><path d="M-30 -44 v26 M-20 -44 v26 M-8 -40 h14 v22 h-14 z"/>
</g>
</svg>